<svg width="32" height="32" viewBox="0 0 32 32" fill="none" xmlns="http://www.w3.org/2000/svg">
<g clip-path="url(#clip0_461_2)">
<rect width="32" height="32" rx="6" fill="#FFEA2A"/>
<g clip-path="url(#clip1_461_2)">
<path fill-rule="evenodd" clip-rule="evenodd" d="M13.2765 22.4489H14.147V24.3613H13.2765V22.4489ZM11.4301 22.4489H12.3005V24.3613H11.4301V22.4489ZM9.56383 22.4489H10.4343V24.3613H9.56383V22.4489ZM12.7885 9.52379C12.7555 9.9788 13.0589 10.7372 12.6105 10.658C12.162 10.5789 12.5049 9.68205 12.7885 9.52379ZM13.105 8.58738C12.8215 9.82713 13.5403 9.95902 13.6656 10.5261C13.7241 10.694 13.7219 10.877 13.6592 11.0434C13.5965 11.2097 13.4774 11.3487 13.3227 11.4362H13.5403V13.342L13.9425 12.9133V12.1879L14.2854 11.9044L14.4305 11.601H14.7471L14.8394 11.7263V12.0692L14.9976 12.1154V12.7287L14.8394 12.788V19.8639H12.3335V11.4362H12.4522C12.2927 11.3065 12.1681 11.1391 12.0898 10.9491C12.0115 10.7591 11.9819 10.5525 12.0038 10.3481C12.0038 9.66227 12.8017 8.92369 13.105 8.58738ZM27.2501 10.9416H28.2063L28.0415 10.724L27.7249 10.3283L27.415 10.724L27.2501 10.9416ZM21.7372 21.9147L20.4183 20.6354H21.7372V21.9147ZM20.2138 20.8464L21.5327 22.1324H20.2138V20.8464ZM20.9722 14.4762L20.4315 15.017H21.5195L20.9722 14.4762ZM21.7372 13.6981L21.1898 14.2454L21.7372 14.7862V13.6981ZM20.9722 14.0344L21.4998 13.5002H20.4578L20.9722 14.0344ZM20.2138 14.7862L20.7546 14.2454L20.2138 13.7179V14.7862ZM20.9722 16.2435L20.4315 16.7777H21.5195L20.9722 16.2435ZM21.7372 15.4852L21.1898 16.0391L21.7372 16.5798V15.4852ZM20.9722 15.8215L21.4998 15.2939H20.4578L20.9722 15.8215ZM20.2138 16.5798L20.7546 16.0391L20.2138 15.5115V16.5798ZM20.9656 18.024L20.4117 18.5714H21.5261L20.9656 18.024ZM21.7372 17.2459L21.1766 17.8064L21.7372 18.3603V17.2459ZM20.959 17.5888L21.4734 17.0744H20.4512L20.959 17.5888ZM20.2402 18.3142L20.7678 17.7866L20.2402 17.2723V18.3142ZM20.9986 19.7913L20.4578 20.3321H21.5459L20.9986 19.7913ZM21.7372 19.0462L21.1832 19.5935L21.7372 20.1408V19.0462ZM20.9656 19.3825L21.4998 18.8549H20.4512L20.9656 19.3825ZM20.2138 20.1342L20.7546 19.5935L20.2138 19.0659V20.1342ZM20.9854 11.7197H21.7372V12.6166H20.9854V11.7197ZM27.3293 5.91663L26.2478 7.23552L27.3293 6.99152V5.91663ZM25.8851 8.68629L26.9666 7.3674L25.8851 7.6114V8.68629ZM25.5553 8.02685L24.4673 9.34574L25.5553 9.08196V8.02685ZM24.1046 10.7899L25.1927 9.47103L24.1046 9.7414V10.7899ZM23.7748 10.1305L22.6868 11.4494L23.7748 11.1988V10.1305ZM22.3241 12.8935L23.4122 11.5747L22.3241 11.8187V12.8935ZM23.5045 23.6161C23.53 23.6065 23.5581 23.6065 23.5836 23.6161C23.6037 23.6351 23.6155 23.6611 23.6166 23.6887V24.3481C23.6158 24.3777 23.6041 24.4059 23.5836 24.4272C23.5626 24.4483 23.5342 24.4601 23.5045 24.4602H19.0994C19.0697 24.4601 19.0412 24.4483 19.0203 24.4272C18.9998 24.4059 18.988 24.3777 18.9873 24.3481V23.6887C18.9884 23.6611 19.0002 23.6351 19.0203 23.6161C19.0306 23.6114 19.0418 23.6089 19.0532 23.6089C19.0646 23.6089 19.0759 23.6114 19.0862 23.6161V23.26C19.0506 23.2571 19.0176 23.2406 18.9939 23.2139C18.9725 23.1853 18.9609 23.1506 18.9609 23.1149V22.5082H16.9826C16.9411 22.5059 16.9016 22.4897 16.8705 22.4621C16.8424 22.434 16.8259 22.3963 16.8243 22.3566V21.6971C17.0221 21.6971 17.1606 21.6246 17.1606 21.5652C17.1606 21.5059 17.0221 21.4531 16.8243 21.4333V19.8968C17.0221 19.8968 17.1606 19.8177 17.1606 19.7584C17.1606 19.699 17.0221 19.6463 16.8243 19.6265V19.1912C16.826 19.0676 16.8759 18.9495 16.9633 18.8621C17.0508 18.7746 17.1689 18.7247 17.2925 18.723H19.9303V13.4079H19.5676C19.5328 13.4148 19.4969 13.4148 19.4621 13.4079C19.4269 13.3961 19.3951 13.3757 19.3698 13.3486C19.3442 13.3229 19.322 13.2941 19.3038 13.2628C19.2975 13.2279 19.2975 13.1922 19.3038 13.1573V12.1748C19.7658 11.4187 20.3147 10.7193 20.9392 10.0909H21.2228C21.3109 10.0909 21.3954 10.1254 21.4583 10.1871C21.5212 10.2487 21.5574 10.3326 21.5591 10.4206V11.3439H22.1196V11.6406L27.5007 5.3561V5H27.9821V9.84032L28.3052 10.2492L28.8526 10.9416H29.512V12.9199H25.9774V10.9416H26.6368L27.1776 10.2492L27.4809 9.87329V7.23552L22.0999 13.5266V21.8356H22.3504H22.4098L22.4626 21.8686L22.4955 21.9279C22.4987 21.9476 22.4987 21.9676 22.4955 21.9873V23.2534H23.3462C23.4319 23.2534 23.5045 23.2534 23.5045 23.3062V23.6161ZM2 27.6915V14.6477C2.00346 14.4526 2.0813 14.2663 2.21762 14.1267C2.356 13.9886 2.5431 13.9105 2.73858 13.9091H4.9609C5.05782 13.9091 5.15378 13.9283 5.24321 13.9657C5.33264 14.003 5.41376 14.0578 5.48187 14.1267C5.61993 14.2651 5.69808 14.4522 5.69948 14.6477V24.9548H6.20725V7.57183C6.22841 7.32066 6.34105 7.086 6.52379 6.91239C6.61579 6.81853 6.72557 6.74395 6.84672 6.69299C6.96787 6.64204 7.09796 6.61575 7.22939 6.61564H7.5789V6.03533C7.58062 5.805 7.67289 5.58459 7.83576 5.42172C7.99863 5.25885 8.21904 5.16659 8.44936 5.16486H10.5728C10.6869 5.16509 10.7999 5.18793 10.9052 5.23207C11.0104 5.27622 11.1059 5.34079 11.1861 5.42205C11.2679 5.50176 11.3329 5.59715 11.3771 5.70251C11.4212 5.80788 11.4438 5.92107 11.4432 6.03533V19.8837H10.3486V6.44418C10.3486 6.40552 10.3409 6.36724 10.3259 6.3316C10.3109 6.29596 10.2889 6.26368 10.2613 6.23665C10.2336 6.20961 10.2008 6.18838 10.1649 6.17419C10.1289 6.16 10.0905 6.15315 10.0518 6.15403H8.97032C8.93327 6.14721 8.89528 6.14721 8.85822 6.15403C8.82066 6.1682 8.78683 6.19075 8.7593 6.21997C8.73366 6.24796 8.71152 6.27896 8.69336 6.31229C8.68709 6.3494 8.68709 6.38729 8.69336 6.4244V6.57607H8.9967C9.1211 6.57607 9.24426 6.60068 9.35911 6.64848C9.47395 6.69628 9.5782 6.76633 9.66585 6.8546C9.7535 6.94286 9.82283 7.0476 9.86983 7.16277C9.91683 7.27795 9.94058 7.40128 9.93971 7.52567V20.2925H15.2153C15.2642 20.2932 15.3112 20.312 15.3472 20.3453C15.3809 20.3835 15.3996 20.4327 15.3999 20.4838V24.9548H30V27.6915H2Z" fill="#1D1D1B"/>
</g>
</g>
<defs>
<clipPath id="clip0_461_2">
<rect width="32" height="32" fill="white"/>
</clipPath>
<clipPath id="clip1_461_2">
<rect width="28" height="22.6915" fill="white" transform="translate(2 5)"/>
</clipPath>
</defs>
</svg>
