<svg width="16" height="14" viewBox="0 0 16 14" fill="none" xmlns="http://www.w3.org/2000/svg">
<path d="M16 4.82715V12.0773C15.955 12.2202 15.9295 12.3726 15.8621 12.5042C15.577 13.06 15.1179 13.3318 14.4881 13.3314C10.166 13.3291 5.84357 13.3291 1.52092 13.3314C0.598496 13.3314 0 12.7282 0 11.8039C0 9.53887 0 7.27349 0 5.00772V4.83068L0.0783373 4.89687C0.391686 5.15499 0.68741 5.43505 1.01838 5.66732C2.61464 6.79015 4.21689 7.90463 5.82516 9.01075C6.18754 9.25413 6.56718 9.47079 6.96105 9.65899C7.44987 9.89831 7.97277 9.97665 8.51017 9.84269C9.0209 9.71305 9.50367 9.49124 9.93473 9.18818C11.3291 8.22202 12.7209 7.25169 14.1101 6.27718C14.7587 5.8189 15.4489 5.41429 16 4.82715Z" fill="black"/>
<path d="M15.9997 2.01367V2.38851C15.939 2.70539 15.8634 3.01521 15.7012 3.30114C15.373 3.87888 14.912 4.32854 14.3695 4.70495C12.7847 5.80741 11.2002 6.91053 9.61596 8.0143C9.33865 8.20623 9.0488 8.3821 8.75425 8.547C8.25172 8.82784 7.73861 8.82353 7.23607 8.54426C6.97717 8.40051 6.71983 8.25049 6.47699 8.08207C4.87421 6.96889 3.2773 5.8475 1.67413 4.73432C1.23525 4.43407 0.846485 4.06646 0.522179 3.64505C0.112475 3.10844 -0.125279 2.52874 0.0686053 1.84329C0.209221 1.34506 0.474784 0.949854 1.00865 0.816289C1.18631 0.777 1.36807 0.759373 1.54996 0.763799C5.84572 0.761188 10.1412 0.761188 14.4364 0.763799C14.5246 0.763799 14.6135 0.763803 14.7016 0.77242C14.9778 0.797333 15.2401 0.904737 15.4544 1.08068C15.7615 1.32156 15.9221 1.64314 15.9997 2.01367Z" fill="black"/>
</svg>
