<svg width="100" height="60" viewBox="0 0 100 60" fill="none" xmlns="http://www.w3.org/2000/svg">
<path fill-rule="evenodd" clip-rule="evenodd" d="M25.2941 39.5721H26.3636V41.9013H25.2941V39.5721ZM23.0214 39.5721H24.0909V41.9013H23.0214V39.5721ZM20.7219 39.5721H21.7914V41.9013H20.7219V39.5721ZM24.6898 23.8343C24.6497 24.3848 25.0214 25.3112 24.4733 25.2106C23.9251 25.1101 24.3556 24.0222 24.6898 23.8343ZM25.0829 22.6882C24.7299 24.2022 25.6176 24.3584 25.7674 25.0545C25.9171 25.7506 25.6257 25.9253 25.3503 26.1582H25.6176V28.4847L26.1096 27.9554V27.074L26.5294 26.7272L26.7086 26.3593H27.1043L27.2139 26.5155V26.931L27.4091 26.9893V27.733L27.2139 27.8071V36.4224H24.1283V26.1582H24.2754C24.008 25.8935 23.7246 25.6712 23.7246 24.8348C23.7246 23.9984 24.7032 23.1038 25.0829 22.6882ZM43.893 45.7153L43.7914 45.8026L43.7112 45.8662L43.6791 45.8953L43.4813 46.0567C43.3503 46.1626 43.2139 46.2632 43.0909 46.3638L43.0508 46.3929L42.9679 46.4564L42.9439 46.4749L42.8663 46.5331L42.8235 46.5649L42.738 46.6284H42.7219L42.6337 46.692L42.5936 46.7211L42.4332 46.8375L42.4011 46.8587L42.3422 46.9011L42.2754 46.946L42.2326 46.9778L42.1364 47.0413L42.1069 47.0625L42.0267 47.1154L41.9733 47.1525L41.9064 47.1948L41.8235 47.2504L41.7219 47.3166L41.6979 47.3325L41.6096 47.3881L41.5348 47.4357L41.492 47.4648L41.4091 47.5151L41.1872 47.6501H41.1711L40.9171 47.801L40.8717 47.8274L40.762 47.8909L40.6417 47.9598L40.615 47.9756L40.4973 48.0392H40.4786L40.3422 48.1133C36.3821 50.2642 31.8245 51.0871 27.3522 50.4587C22.88 49.8303 18.7338 47.7844 15.5348 44.6275L15.369 44.4607L15.3396 44.4316L15.1952 44.2834L15.1711 44.2569L15.0241 44.106L15.0027 44.0822L14.8743 43.9419L14.8048 43.8678L14.6952 43.7487L14.6524 43.7143L14.5321 43.5767L14.4893 43.529C14.4492 43.4814 14.4064 43.4338 14.3663 43.3835L14.3396 43.3544L14.2219 43.2167L14.1471 43.1267C14.115 43.0844 14.0802 43.0447 14.0481 43.005L13.9813 42.9229L13.9091 42.8382L13.8396 42.7482L13.7567 42.6424C13.7299 42.6053 13.7005 42.5709 13.6738 42.5365L13.6203 42.465L13.5267 42.3406L13.4733 42.2692C13.4438 42.2295 13.4144 42.1924 13.3877 42.1527L13.3262 42.0707C13.3021 42.0336 13.2754 41.9992 13.2513 41.9648L13.1872 41.8748C12.5176 40.9272 11.9291 39.9259 11.4278 38.8813C9.21485 34.2627 8.80815 28.9965 10.2862 24.0986C11.7642 19.2007 15.0222 15.0181 19.4317 12.3578C23.8411 9.69748 29.0897 8.74786 34.1647 9.69216C39.2398 10.6365 43.7817 13.4078 46.9144 17.4714H51.6631C51.5856 17.3417 51.508 17.2068 51.4305 17.0929C51.2406 16.7886 51.0374 16.4815 50.8235 16.1719L50.6417 15.9072L50.869 15.6822L54.0107 12.5405C52.293 10.2649 50.2534 8.24585 47.9545 6.54551L44.8102 9.65812L44.5829 9.8831L44.3155 9.70312C41.4844 7.78711 38.2822 6.47393 34.9118 5.84675L34.5936 5.78588V1.06665C33.9519 0.974017 33.2941 0.899905 32.6257 0.849616C31.8663 0.791387 31.0936 0.759626 30.3128 0.759626C29.5321 0.759626 28.7567 0.791387 27.9973 0.849616C27.3289 0.899905 26.6604 0.974017 26.0294 1.06665V5.78588L25.7112 5.84675C22.3414 6.47324 19.1399 7.78649 16.3102 9.70312L16.0428 9.8831L15.8155 9.65812L12.6684 6.54551C10.3713 8.24776 8.33193 10.2665 6.6123 12.5405L9.75668 15.6584L9.98396 15.8834L9.80214 16.148C7.86376 18.9474 6.53606 22.1159 5.90374 25.4515L5.84492 25.7638H1.06952C0.97861 26.4017 0.903743 27.0502 0.852941 27.7119C0.791444 28.4662 0.762032 29.2285 0.762032 30.004C0.762032 30.7795 0.791444 31.5418 0.852941 32.2934C0.903743 32.9551 0.97861 33.6168 1.06952 34.2415H5.84492L5.90374 34.5564C6.53851 37.893 7.86597 41.0627 9.80214 43.8652L9.98396 44.1299L9.75668 44.3548L6.6123 47.4648C8.33 49.7404 10.3696 51.7594 12.6684 53.4598L15.8128 50.3472L16.0401 50.1222L16.3075 50.3022C17.7206 51.2571 19.2295 52.0651 20.8102 52.7134C22.3879 53.3613 24.0296 53.8447 25.7086 54.1559L26.0267 54.2141V58.936C26.6702 59.0295 27.3262 59.1019 27.9947 59.153C28.754 59.2113 29.5258 59.2404 30.3102 59.2404C31.0909 59.2404 31.8636 59.2113 32.623 59.153C33.2914 59.1001 33.9599 59.0286 34.5909 58.936V54.2194L34.9091 54.1612C38.2806 53.5359 41.4833 52.2216 44.3128 50.3022L44.5802 50.1222L44.8075 50.3472L47.9519 53.4598C50.2516 51.7596 52.2922 49.7406 54.0107 47.4648L50.8663 44.3522L50.639 44.1272L50.8209 43.8625C51.1595 43.3667 51.4822 42.8612 51.7888 42.3459C51.984 42.0098 52.1765 41.6684 52.3583 41.3163H47.8128C47.4207 41.9079 46.9986 42.4794 46.5481 43.0288M46.5481 43.0288L46.5267 43.0553C46.1898 43.4629 45.8387 43.8581 45.4733 44.241C45.0722 44.6566 44.6551 45.0589 44.2219 45.44L44.2086 45.4533L44.1203 45.5274L44.1043 45.5432M100 30.004V30.6365H48.1952V30.004H100ZM42.4866 25.56H43.6578L43.4572 25.2953L43.0722 24.8136L42.6872 25.2953L42.4866 25.56ZM35.7326 38.9263L34.1283 37.362H35.7326V38.9263ZM33.861 37.6214L35.4652 39.1883H33.861V37.6214ZM34.7941 29.861L34.131 30.5201H35.4679L34.7941 29.861ZM35.7353 28.9294L35.0588 29.599L35.7353 30.2581V28.9294ZM34.7888 29.337L35.4412 28.6912H34.1257L34.7888 29.337ZM33.861 30.2554L34.5267 29.599L33.861 28.9532V30.2554ZM34.7941 32.0288L34.131 32.6852H35.4679L34.7941 32.0288ZM35.7353 31.0944L35.0588 31.7667L35.7353 32.4231V31.0944ZM34.7888 31.5047L35.4412 30.8589H34.1257L34.7888 31.5047ZM33.861 32.4231L34.5267 31.7667L33.861 31.1209V32.4231ZM34.7808 34.1806L34.1016 34.8529H35.4706L34.7808 34.1806ZM35.7353 33.2357L35.0428 33.9212L35.7326 34.5935L35.7353 33.2357ZM34.7727 33.6565L35.4118 33.0266H34.123L34.7727 33.6565ZM33.8583 34.5617L34.508 33.9186L33.8583 33.2886V34.5617ZM34.7914 36.3615L34.1283 37.0206H35.4652L34.7914 36.3615ZM35.7326 35.4299L35.0561 36.0995L35.7326 36.7586V35.4299ZM34.7861 35.8375L35.4385 35.1943H34.123L34.7861 35.8375ZM33.8583 36.7559L34.5241 36.0995L33.8583 35.4563V36.7559ZM34.7781 26.4943H35.7086V27.5927H34.7781V26.4943ZM42.5856 19.4301L41.2487 21.034L42.5856 20.7349V19.4301ZM40.8021 22.8047L42.139 21.2008L40.8021 21.4998V22.8047ZM40.3957 22.0107L39.0588 23.6146L40.3957 23.3129V22.0107ZM38.6123 25.3694L39.9492 23.7655L38.6123 24.0646V25.3694ZM38.2086 24.5886L36.8717 26.1926L38.2086 25.8909V24.5886ZM36.4225 27.9474L37.7594 26.3435L36.4225 26.6452V27.9474ZM37.877 41.0093C37.9125 41.0093 37.9465 41.0232 37.9715 41.0481C37.9966 41.0729 38.0107 41.1065 38.0107 41.1416V41.9357C38.0107 41.9708 37.9966 42.0044 37.9715 42.0293C37.9465 42.0541 37.9125 42.068 37.877 42.068H32.4866C32.4512 42.068 32.4172 42.0541 32.3921 42.0293C32.367 42.0044 32.3529 41.9708 32.3529 41.9357V41.1416C32.3534 41.1089 32.3658 41.0774 32.3879 41.053C32.4101 41.0287 32.4404 41.0132 32.4733 41.0093V40.5779C32.4295 40.5745 32.3888 40.5543 32.3599 40.5217C32.3309 40.4891 32.316 40.4466 32.3182 40.4032V39.6594H29.8743C29.8248 39.6596 29.7771 39.641 29.7408 39.6076C29.7046 39.5742 29.6825 39.5284 29.6791 39.4795V38.6854C29.9225 38.659 30.0909 38.5954 30.0909 38.5213C30.0909 38.4472 29.9225 38.3837 29.6791 38.3572V36.4621C29.9225 36.4357 30.0909 36.3721 30.0909 36.298C30.0909 36.2239 29.9225 36.163 29.6791 36.1339V35.6046C29.6798 35.4534 29.741 35.3087 29.8492 35.202C29.9575 35.0954 30.104 35.0355 30.2567 35.0355H33.4652V28.5615H33.0134C32.9686 28.5625 32.924 28.5548 32.8822 28.5387C32.8404 28.5226 32.8023 28.4985 32.7699 28.4677C32.7376 28.437 32.7118 28.4002 32.6939 28.3595C32.676 28.3188 32.6665 28.275 32.6658 28.2306V27.0634C32.6658 26.8569 34.508 24.5278 34.6791 24.5251H35.0267C35.135 24.5237 35.2395 24.5646 35.3176 24.6389C35.3957 24.7132 35.441 24.815 35.4438 24.9221V26.047H36.1337V26.4123L42.7487 18.7525V18.3184H43.3476V24.2181L43.746 24.7157L44.4171 25.56H45.1979V27.9924H40.9198V25.56H41.7112L42.3824 24.7157L42.7487 24.2578V21.0684L36.1337 28.7282V38.8284H36.4358C36.4622 38.8297 36.488 38.8362 36.5118 38.8474C36.5356 38.8587 36.5569 38.8745 36.5746 38.8939C36.5922 38.9133 36.6058 38.936 36.6146 38.9606C36.6233 38.9853 36.6271 39.0114 36.6257 39.0374V40.5779H37.6711C37.7807 40.5779 37.869 40.607 37.869 40.6414L37.877 41.0093ZM17.8449 20.285H18.2727V19.5809C18.2727 19.3001 18.3854 19.0308 18.586 18.8323C18.7866 18.6338 19.0586 18.5222 19.3422 18.5222H21.9545C22.2382 18.5222 22.5102 18.6338 22.7108 18.8323C22.9114 19.0308 23.0241 19.3001 23.0241 19.5809V36.4118H21.6872V20.105C21.6865 20.0104 21.6482 19.92 21.5807 19.8531C21.5131 19.7862 21.4217 19.7484 21.3262 19.7477H19.9893C19.9419 19.7477 19.895 19.7569 19.8512 19.7749C19.8074 19.7928 19.7676 19.8191 19.7341 19.8523C19.7005 19.8855 19.674 19.9249 19.6558 19.9683C19.6377 20.0116 19.6283 20.0581 19.6283 20.105V20.285H19.9973C20.3065 20.2864 20.6026 20.4088 20.821 20.6254C21.0394 20.8421 21.1624 21.1355 21.1631 21.4416V36.9465H27.6738C27.7355 36.9465 27.7947 36.9707 27.8383 37.0139C27.8819 37.0571 27.9064 37.1157 27.9064 37.1768V42.6238H45.8717C46.3726 42.0193 46.8377 41.3865 47.2647 40.7287L47.3797 40.5514H53.6043L53.3369 41.1046C53.0695 41.6525 52.7727 42.1977 52.4572 42.7324C52.1898 43.177 51.9225 43.6084 51.639 44.0319L54.7941 47.1551L55.0267 47.3854L54.8316 47.6501C52.9659 50.1875 50.7104 52.4202 48.1471 54.2671L47.8797 54.4603L47.6444 54.23L44.4813 51.1253C41.7183 52.9477 38.6218 54.2173 35.3663 54.8626V59.595L35.0374 59.6453C34.2549 59.7671 33.4697 59.8553 32.6818 59.91C31.8939 59.9647 31.1034 59.9947 30.3102 60C29.5134 60 28.7228 59.97 27.9385 59.91C27.1542 59.85 26.3681 59.7618 25.5802 59.6453L25.2513 59.595V54.852C21.9966 54.21 18.9001 52.944 16.1364 51.1253L12.984 54.2485L12.7487 54.4788L12.4813 54.2856C9.91619 52.4408 7.66042 50.2078 5.79679 47.6686L5.6016 47.4039L5.83422 47.1737L8.9893 44.0505C7.14659 41.317 5.86303 38.2525 5.21123 35.0302H0.414438L0.360963 34.7047C0.237968 33.9265 0.144385 33.1484 0.093583 32.3702C0.0427809 31.592 0 30.8086 0 30.0225C0 29.2364 0.0320857 28.4529 0.093583 27.6748C0.15508 26.8966 0.245989 26.1158 0.360963 25.3403L0.414438 25.0148H5.20588C5.85615 21.7855 7.13972 18.7137 8.98396 15.9734L5.82888 12.8528L5.59626 12.6199L5.79144 12.3552C7.65713 9.81775 9.9126 7.58507 12.4759 5.73823L12.7433 5.54502L12.9786 5.77529L16.131 8.89849C18.8932 7.07407 21.9899 5.80347 25.246 5.15858V0.410257L25.5749 0.357318C26.3574 0.235566 27.1426 0.147339 27.9305 0.0926391C28.7184 0.0379389 29.5098 0.0070581 30.3048 0C31.098 0 31.8886 0.0308808 32.6765 0.0926391C33.4643 0.154397 34.2496 0.242624 35.0321 0.357318L35.361 0.410257V5.15329C38.6167 5.7993 41.7132 7.06981 44.4759 8.8932L47.631 5.77L47.8636 5.53972L48.131 5.73294C50.6944 7.57978 52.9498 9.81246 54.8155 12.3499L55.0107 12.6146L54.7781 12.8475L51.623 15.9681C51.7727 16.1904 51.9225 16.4207 52.0695 16.6562C52.2781 16.9897 52.4733 17.3153 52.6524 17.6329L52.9759 18.2046H46.5241L46.4064 18.0511C43.5079 14.2258 39.316 11.5603 34.5964 10.5415C29.8768 9.52257 24.9444 10.2183 20.7001 12.5015C16.4558 14.7848 13.1828 18.5032 11.479 22.9776C9.77514 27.452 9.75413 32.3839 11.4198 36.8724V30.0728C11.4205 29.8343 11.5165 29.6058 11.6868 29.4372C11.8572 29.2686 12.088 29.1736 12.3289 29.1729H15.0588C15.3002 29.1736 15.5314 29.269 15.7018 29.4382C15.8722 29.6073 15.9679 29.8365 15.9679 30.0754V42.6238H16.5936V21.4496C16.6114 21.1336 16.7512 20.8365 16.9842 20.6197C17.2171 20.403 17.5252 20.2831 17.8449 20.285Z" fill="#1D1D1B"/>
<path fill-rule="evenodd" clip-rule="evenodd" d="M34.5911 5.46791V1.06631C33.9494 0.973668 33.2916 0.899556 32.6232 0.849267C31.8638 0.791038 31.0911 0.759277 30.3103 0.759277C29.5296 0.759277 28.7542 0.791038 27.9948 0.849267C27.3264 0.899556 26.6579 0.973668 26.0269 1.06631V5.78553L25.7087 5.8464C22.3398 6.47324 19.1393 7.78648 16.3103 9.70277L16.043 9.88275L15.8157 9.65777L12.6686 6.54516C10.3715 8.24741 8.3321 10.2662 6.61247 12.5401L9.75686 15.658L9.98413 15.883L9.80231 16.1477C7.86393 18.947 6.53624 22.1155 5.90392 25.4511L5.84509 25.7635H1.06969C0.978784 26.4013 0.903918 27.0498 0.853116 27.7115C0.791619 28.4658 0.762207 29.2281 0.762207 30.0036C0.762207 30.7791 0.791619 31.5414 0.853116 32.2931C0.903918 32.9548 0.978784 33.6165 1.06969 34.2411H5.84509L5.90392 34.5561C6.53869 37.8926 7.86615 41.0624 9.80231 43.8648L9.98413 44.1295L9.75686 44.3545L6.61247 47.4645C8.33018 49.7401 10.3698 51.7591 12.6686 53.4594L15.813 50.3468L16.0403 50.1218L16.3077 50.3018C17.7208 51.2568 19.2296 52.0648 20.8103 52.713C22.3881 53.3609 24.0298 53.8444 25.7087 54.1555L26.0269 54.2138V58.9356C26.6704 59.0292 27.3264 59.1015 27.9948 59.1527C28.7542 59.2109 29.526 59.24 30.3103 59.24C31.0911 59.24 31.8638 59.2109 32.6232 59.1527C33.2916 59.0997 33.9601 59.0283 34.5911 58.9356V54.2191L34.9093 54.1608C38.2808 53.5356 41.4835 52.2213 44.313 50.3018L44.5804 50.1218L44.8077 50.3468L47.952 53.4594C50.2518 51.7593 52.2923 49.7402 54.0109 47.4645L50.8665 44.3518L50.6392 44.1269L50.821 43.8622C51.1597 43.3664 51.4823 42.8608 51.7889 42.3456C51.9841 42.0094 52.1766 41.668 52.3585 41.316H47.813C45.387 44.9939 41.8415 47.8122 37.6898 49.363C33.5381 50.9137 28.9956 51.1164 24.7199 49.9417C20.4441 48.767 16.6568 46.2759 13.9064 42.8289C11.1559 39.3819 9.58484 35.158 9.42065 30.7684C9.25647 26.3788 10.5077 22.0514 12.9931 18.4125C15.4786 14.7737 19.0694 12.0121 23.2457 10.5277C27.422 9.0432 31.9672 8.91282 36.2234 10.1554C40.4795 11.398 44.2258 13.949 46.92 17.4393H51.6686C51.5911 17.3096 51.5135 17.1746 51.436 17.0608C51.2462 16.7565 51.043 16.4494 50.8291 16.1398L50.6472 15.8751L50.8745 15.6501L54.0109 12.5401C52.2932 10.2645 50.2535 8.2455 47.9547 6.54516L44.8103 9.65777L44.5831 9.88275L44.3157 9.70277C41.4846 7.78676 38.2824 6.47358 34.9119 5.8464L34.5938 5.78553L34.5911 5.46791Z" fill="#F4D01C"/>
<path d="M49.9488 28.4792C49.5986 28.4792 49.4141 28.3628 49.4141 28.1299V19.9619C49.4141 19.729 49.5879 19.6099 49.9488 19.6099H51.1681C51.5183 19.6099 51.7028 19.729 51.7028 19.9619V23.4027H59.0371V19.9619C59.0371 19.729 59.2109 19.6099 59.5397 19.6099H60.7617C61.1093 19.6099 61.2964 19.729 61.2964 19.9619V28.1299C61.2964 28.3628 61.1199 28.4792 60.7617 28.4792H59.5397C59.2109 28.4792 59.0371 28.3628 59.0371 28.1299V24.3926H51.6921V28.1378C51.6921 28.3707 51.5183 28.4872 51.1574 28.4872L49.9488 28.4792Z" fill="white"/>
<path d="M62.7166 27.9216C62.4278 27.8051 62.369 27.6357 62.5615 27.4399L62.7942 27.1752C62.8828 27.0844 62.9993 27.0252 63.1254 27.0065C63.2516 26.9878 63.3804 27.0108 63.492 27.072C64.5361 27.4443 65.639 27.629 66.7487 27.6172C68.9974 27.6172 70.2246 27.0455 70.2246 25.9656C70.2246 24.9387 69.1391 24.3537 67.1819 24.3537H65.4974C65.1471 24.3537 64.9626 24.2373 64.9626 24.0149V23.7158C64.9626 23.4829 65.1364 23.3638 65.4974 23.3638H66.9305C68.8877 23.3638 69.8717 22.8847 69.8717 21.9081C69.8717 20.9843 68.7861 20.4656 66.8476 20.4656C65.8689 20.4465 64.8975 20.637 64 21.0241C63.8916 21.0898 63.7642 21.118 63.6378 21.1041C63.5114 21.0902 63.3933 21.035 63.3022 20.9473L63.0348 20.6985C62.861 20.5026 62.9011 20.3359 63.1712 20.2036C64.4998 19.699 65.9141 19.4519 67.3369 19.4757C70.3797 19.4757 72.2032 20.3359 72.2032 21.7784C72.2032 22.8053 71.3503 23.4697 69.6444 23.782C71.6391 24.0811 72.6471 24.8222 72.6471 26.0053C72.6471 27.6304 70.5562 28.6045 67.1257 28.6045C65.6269 28.6351 64.1344 28.4039 62.7166 27.9216Z" fill="white"/>
<path d="M74.0131 28.4792C73.6655 28.4792 73.4917 28.3628 73.4917 28.1299V19.9619C73.4917 19.729 73.6655 19.6099 74.0131 19.6099H75.235C75.5853 19.6099 75.7698 19.729 75.7698 19.9619V23.4027H83.1147V19.9619C83.1147 19.729 83.2885 19.6099 83.6174 19.6099H84.8393C85.1869 19.6099 85.3741 19.729 85.3741 19.9619V28.1299C85.3741 28.3628 85.1976 28.4792 84.8393 28.4792H83.6174C83.2885 28.4792 83.1147 28.3628 83.1147 28.1299V24.3926H75.7591V28.1378C75.7591 28.3707 75.5853 28.4872 75.2243 28.4872L74.0131 28.4792Z" fill="white"/>
<path d="M87.1654 28.4792C86.8178 28.4792 86.644 28.3628 86.644 28.1299V19.9619C86.644 19.729 86.8178 19.6099 87.1654 19.6099H97.9809C98.3285 19.6099 98.5023 19.729 98.5023 19.9619V28.1299C98.5023 28.3628 98.3285 28.4792 97.9809 28.4792H96.7644C96.4355 28.4792 96.2617 28.3628 96.2617 28.1299V20.5998H88.9168V28.1299C88.9168 28.3628 88.7403 28.4792 88.382 28.4792H87.1654Z" fill="white"/>
<path d="M53.1286 39.2464V33.3918L50.1473 39.2385H49.5537V32.0684H50.1821V37.9178L53.1633 32.0684H53.7435V39.2359L53.1286 39.2464Z" fill="#1D1D1B"/>
<path d="M57.8827 39.2464V35.975H55.0993V39.2464H54.4736V32.0684H55.0993V35.2895H57.8827V32.0684H58.5084V39.2359L57.8827 39.2464Z" fill="#1D1D1B"/>
<path d="M58.6738 39.2464L61.3476 35.4827L58.8877 32.0684H59.6899L62.0963 35.4827V32.0684H62.722V35.4827L65.1097 32.0684H65.9118L63.4492 35.4721L66.123 39.2359H65.2995L62.7006 35.5092V39.2438H62.0749V35.5092L59.4974 39.2438L58.6738 39.2464Z" fill="#1D1D1B"/>
<path d="M69.8373 39.2464V33.3918L66.8453 39.2464H66.2544V32.0684H66.8801V37.9178L69.872 32.0684H70.4629V39.2359L69.8373 39.2464Z" fill="#1D1D1B"/>
<path d="M74.5988 39.2464V35.975H71.8073V39.2464H71.1816V32.0684H71.8073V35.2895H74.5988V32.0684H75.2244V39.2359L74.5988 39.2464Z" fill="#1D1D1B"/>
<path d="M79.5109 39.2464V33.3918L76.5269 39.2385H75.936V32.0684H76.5617V37.9178L79.543 32.0684H80.1366V39.2359L79.5109 39.2464Z" fill="#1D1D1B"/>
<path d="M84.8477 34.1854C84.8514 34.479 84.8072 34.7713 84.7167 35.0509C84.6377 35.2947 84.5135 35.5218 84.3503 35.7205C84.1948 35.9044 83.9991 36.051 83.7782 36.1493C83.5441 36.2515 83.2906 36.3029 83.0348 36.3002H81.4787V39.2487H80.853V32.068H83.0348C83.2906 32.0652 83.5441 32.1167 83.7782 32.2188C83.9986 32.318 84.1941 32.4645 84.3503 32.6476C84.5124 32.8451 84.6366 33.0702 84.7167 33.312C84.8088 33.5939 84.8531 33.8891 84.8477 34.1854ZM84.2247 34.1854C84.2497 33.805 84.1337 33.4286 83.8985 33.1267C83.7839 32.9999 83.642 32.9003 83.4832 32.8352C83.3245 32.7702 83.1529 32.7413 82.9814 32.7508H81.4814V35.62H82.9814C83.1534 35.6296 83.3255 35.6003 83.4844 35.5343C83.6433 35.4682 83.7849 35.3672 83.8985 35.2388C84.1307 34.9375 84.2464 34.5638 84.2247 34.1854Z" fill="#1D1D1B"/>
<path d="M88.7541 39.2464V33.3918L85.7728 39.2385H85.1792V32.0684H85.8075V37.9178L88.7861 32.0684H89.3797V39.2359L88.7541 39.2464Z" fill="#1D1D1B"/>
<path d="M93.508 39.2464V35.975H90.7246V39.2464H90.1069V32.0684H90.7326V35.2895H93.516V32.0684H94.1417V39.2359L93.508 39.2464Z" fill="#1D1D1B"/>
<path d="M95.5051 32.7539V39.2464H94.8794V32.0684H98.3954V32.7433L95.5051 32.7539Z" fill="#1D1D1B"/>
</svg>
