<svg width="124" height="75" viewBox="0 0 124 75" fill="none" xmlns="http://www.w3.org/2000/svg">
<path fill-rule="evenodd" clip-rule="evenodd" d="M31.1737 49.2683H32.4918V52.1682H31.1737V49.2683ZM28.3727 49.2683H29.6908V52.1682H28.3727V49.2683ZM25.5387 49.2683H26.8568V52.1682H25.5387V49.2683ZM30.429 29.6744C30.3795 30.3598 30.8376 31.5131 30.1621 31.3879C29.4865 31.2627 30.0171 29.9083 30.429 29.6744ZM30.9134 28.2475C30.4784 30.1324 31.5725 30.3268 31.757 31.1935C31.9415 32.0602 31.5823 32.2777 31.2429 32.5676H31.5724V35.4642L32.1788 34.8052V33.7078L32.6962 33.2761L32.9169 32.8181H33.4046L33.5398 33.0125V33.5299L33.7803 33.6024V34.5283L33.5398 34.6206V45.3469H29.737V32.5676H29.9182C29.5887 32.2381 29.2394 31.9613 29.2394 30.92C29.2394 29.8787 30.4454 28.7648 30.9134 28.2475ZM54.096 56.9167L53.9707 57.0255L53.8719 57.1046L53.8323 57.1408L53.5885 57.3418C53.427 57.4737 53.2589 57.5989 53.1074 57.7241L53.0579 57.7603L52.9558 57.8394L52.9261 57.8625L52.8306 57.935L52.7778 57.9745L52.6724 58.0536H52.6526L52.5439 58.1327L52.4944 58.169L52.2967 58.314L52.2572 58.3403L52.1847 58.3931L52.1023 58.4491L52.0496 58.4886L51.9309 58.5677L51.8947 58.5941L51.7958 58.66L51.7299 58.7061L51.6475 58.7588L51.5454 58.828L51.4202 58.9104L51.3905 58.9302L51.2817 58.9994L51.1895 59.0587L51.1368 59.095L51.0346 59.1576L50.7611 59.3256H50.7413L50.4283 59.5135L50.3722 59.5464L50.2371 59.6255L50.0888 59.7112L50.0559 59.7309L49.9109 59.81H49.8878L49.7198 59.9023C44.8391 62.5803 39.2221 63.6048 33.7103 62.8224C28.1984 62.04 23.0884 59.4928 19.1458 55.5624L18.9415 55.3548L18.9052 55.3185L18.7273 55.134L18.6976 55.101L18.5164 54.9132L18.49 54.8835L18.3319 54.7089L18.2462 54.6166L18.1111 54.4683L18.0583 54.4255L17.9101 54.2541L17.8573 54.1948C17.8079 54.1355 17.7552 54.0762 17.7057 54.0136L17.6728 53.9773L17.5278 53.806L17.4355 53.6939C17.396 53.6412 17.3531 53.5918 17.3136 53.5423L17.2312 53.4402L17.1422 53.3347L17.0566 53.2227L16.9544 53.0909C16.9215 53.0448 16.8852 53.0019 16.8523 52.9591L16.7864 52.8701L16.671 52.7152L16.6051 52.6262C16.5689 52.5768 16.5326 52.5307 16.4997 52.4813L16.4239 52.3791C16.3942 52.333 16.3613 52.2901 16.3316 52.2473L16.2525 52.1352C15.4273 50.9554 14.702 49.7087 14.0842 48.4082C11.3568 42.658 10.8556 36.1014 12.6772 30.0034C14.4988 23.9054 18.5141 18.698 23.9485 15.3858C29.383 12.0736 35.8515 10.8913 42.1063 12.067C48.361 13.2427 53.9588 16.693 57.8197 21.7524H63.6721C63.5766 21.5909 63.481 21.4229 63.3855 21.2812C63.1515 20.9022 62.901 20.52 62.6374 20.1344L62.4133 19.8049L62.6934 19.5248L66.5654 15.6132C64.4485 12.78 61.9347 10.2663 59.1015 8.14933L55.2262 12.0246L54.9461 12.3047L54.6166 12.0806C51.1274 9.69516 47.1809 8.06021 43.027 7.27936L42.6348 7.20357V1.32801C41.844 1.21268 41.0333 1.12041 40.2095 1.05779C39.2736 0.985298 38.3213 0.945755 37.359 0.945755C36.3968 0.945755 35.4412 0.985298 34.5053 1.05779C33.6815 1.12041 32.8576 1.21268 32.0799 1.32801V7.20357L31.6878 7.27936C27.5346 8.05936 23.589 9.69439 20.1014 12.0806L19.7719 12.3047L19.4918 12.0246L15.6132 8.14933C12.7821 10.2687 10.2687 12.7821 8.14932 15.6132L12.0246 19.4951L12.3047 19.7752L12.0806 20.1047C9.69168 23.59 8.05537 27.5349 7.27606 31.6878L7.20357 32.0766H1.31813C1.20609 32.8708 1.11382 33.6782 1.05121 34.502C0.975415 35.4412 0.939166 36.3902 0.939166 37.3557C0.939166 38.3213 0.975415 39.2703 1.05121 40.2062C1.11382 41.03 1.20609 41.8538 1.31813 42.6315H7.20357L7.27606 43.0237C8.05838 47.1777 9.69441 51.1242 12.0806 54.6133L12.3047 54.9429L12.0246 55.223L8.14932 59.095C10.2663 61.9281 12.78 64.4419 15.6132 66.5588L19.4885 62.6836L19.7686 62.4035L20.0981 62.6275C21.8397 63.8165 23.6993 64.8225 25.6475 65.6296C27.592 66.4362 29.6153 67.0381 31.6845 67.4255L32.0766 67.498V73.3769C32.8697 73.4933 33.6782 73.5834 34.502 73.6471C35.4379 73.7196 36.3891 73.7558 37.3557 73.7558C38.318 73.7558 39.2703 73.7196 40.2062 73.6471C41.03 73.5812 41.8538 73.4922 42.6315 73.3769V67.5046L43.0237 67.4321C47.1789 66.6537 51.1261 65.0173 54.6133 62.6275L54.9428 62.4035L55.223 62.6836L59.0982 66.5588C61.9326 64.4421 64.4475 61.9284 66.5654 59.095L62.6901 55.2197L62.41 54.9396L62.6341 54.61C63.0515 53.9927 63.4492 53.3633 63.827 52.7218C64.0676 52.3033 64.3049 51.8782 64.5289 51.4399H58.9269C58.4436 52.1764 57.9233 52.888 57.3682 53.572M57.3682 53.572L57.3418 53.605C56.9266 54.1124 56.4938 54.6045 56.0435 55.0813C55.5492 55.5986 55.0351 56.0995 54.5013 56.574L54.4848 56.5905L54.3761 56.6828L54.3563 56.7025M123.245 37.3557V38.1433H59.3981V37.3557H123.245ZM52.3626 31.8229H53.806L53.5588 31.4934L53.0843 30.8936L52.6098 31.4934L52.3626 31.8229ZM44.0386 48.4643L42.0614 46.5167H44.0386V48.4643ZM41.7319 46.8397L43.7091 48.7905H41.7319V46.8397ZM42.882 37.1778L42.0647 37.9983H43.7124L42.882 37.1778ZM44.0419 36.0178L43.2082 36.8516L44.0419 37.6721V36.0178ZM42.8754 36.5253L43.6794 35.7213H42.0582L42.8754 36.5253ZM41.7319 37.6688L42.5525 36.8516L41.7319 36.0475V37.6688ZM42.882 39.8767L42.0647 40.6939H43.7124L42.882 39.8767ZM44.0419 38.7134L43.2082 39.5504L44.0419 40.3677V38.7134ZM42.8754 39.2242L43.6794 38.4201H42.0582L42.8754 39.2242ZM41.7319 40.3677L42.5525 39.5504L41.7319 38.7464V40.3677ZM42.8655 42.5558L42.0285 43.3928H43.7157L42.8655 42.5558ZM44.0419 41.3793L43.1884 42.2328L44.0386 43.0698L44.0419 41.3793ZM42.8556 41.9033L43.6432 41.119H42.0549L42.8556 41.9033ZM41.7286 43.0303L42.5294 42.2295L41.7286 41.4452V43.0303ZM42.8787 45.2711L42.0614 46.0916H43.7091L42.8787 45.2711ZM44.0386 44.1111L43.2049 44.9449L44.0386 45.7654V44.1111ZM42.8721 44.6186L43.6761 43.8179H42.0549L42.8721 44.6186ZM41.7286 45.7621L42.5492 44.9449L41.7286 44.1441V45.7621ZM42.8622 32.9861H44.009V34.3537H42.8622V32.9861ZM52.4845 24.1909L50.8369 26.1879L52.4845 25.8155V24.1909ZM50.2866 28.3925L51.9342 26.3955L50.2866 26.7679V28.3925ZM49.7857 27.4039L48.138 29.4008L49.7857 29.0252V27.4039ZM47.5877 31.5856L49.2354 29.5887L47.5877 29.961V31.5856ZM47.0901 30.6135L45.4424 32.6105L47.0901 32.2348V30.6135ZM44.8888 34.7953L46.5365 32.7983L44.8888 33.174V34.7953ZM46.6815 51.0577C46.7252 51.0577 46.7671 51.075 46.798 51.1059C46.8289 51.1368 46.8463 51.1787 46.8463 51.2224V52.211C46.8463 52.2547 46.8289 52.2966 46.798 52.3275C46.7671 52.3584 46.7252 52.3758 46.6815 52.3758H40.0381C39.9944 52.3758 39.9525 52.3584 39.9216 52.3275C39.8907 52.2966 39.8734 52.2547 39.8734 52.211V51.2224C39.8739 51.1817 39.8892 51.1424 39.9165 51.1121C39.9438 51.0818 39.9811 51.0625 40.0216 51.0577V50.5205C39.9677 50.5163 39.9176 50.4912 39.8819 50.4506C39.8462 50.41 39.8278 50.357 39.8305 50.303V49.3771H36.8186C36.7576 49.3772 36.6987 49.3541 36.6541 49.3125C36.6094 49.2709 36.5822 49.2139 36.578 49.153V48.1644C36.8779 48.1314 37.0855 48.0523 37.0855 47.9601C37.0855 47.8678 36.8779 47.7887 36.578 47.7558V45.3963C36.8779 45.3634 37.0855 45.2843 37.0855 45.192C37.0855 45.0997 36.8779 45.0239 36.578 44.9877V44.3286C36.5789 44.1404 36.6543 43.9602 36.7877 43.8274C36.9211 43.6947 37.1016 43.6201 37.2898 43.6201H41.2442V35.5598H40.6873C40.6321 35.5611 40.5771 35.5515 40.5256 35.5314C40.4741 35.5114 40.4271 35.4814 40.3873 35.4431C40.3475 35.4048 40.3156 35.359 40.2936 35.3083C40.2715 35.2576 40.2598 35.2031 40.2589 35.1479V33.6946C40.2589 33.4376 42.5294 30.5377 42.7403 30.5344H43.1687C43.3021 30.5326 43.431 30.5835 43.5272 30.676C43.6234 30.7686 43.6793 30.8953 43.6827 31.0287V32.4292H44.5329V32.884L52.6856 23.3473V22.8069H53.4237V30.1522L53.9147 30.7717L54.7418 31.8229H55.7041V34.8513H50.4316V31.8229H51.407L52.2341 30.7717L52.6856 30.2016V26.2307L44.5329 35.7674V48.3423H44.9053C44.9378 48.344 44.9696 48.3521 44.9989 48.3661C45.0283 48.3801 45.0546 48.3998 45.0763 48.4239C45.0981 48.4481 45.1148 48.4764 45.1256 48.507C45.1364 48.5377 45.1411 48.5702 45.1393 48.6027V50.5205H46.4277C46.5629 50.5205 46.6716 50.5568 46.6716 50.5996L46.6815 51.0577ZM21.993 25.2553H22.5202V24.3788C22.5202 24.0292 22.6591 23.6939 22.9063 23.4467C23.1535 23.1995 23.4887 23.0606 23.8383 23.0606H27.0579C27.4075 23.0606 27.7427 23.1995 27.9899 23.4467C28.2371 23.6939 28.376 24.0292 28.376 24.3788V45.3337H26.7283V25.0312C26.7275 24.9135 26.6803 24.8009 26.5971 24.7176C26.5138 24.6344 26.4012 24.5872 26.2835 24.5864H24.6358C24.5774 24.5864 24.5195 24.5979 24.4656 24.6202C24.4116 24.6426 24.3625 24.6754 24.3212 24.7167C24.2799 24.758 24.2472 24.807 24.2248 24.861C24.2024 24.915 24.1909 24.9728 24.1909 25.0312V25.2553H24.6457C25.0268 25.2571 25.3917 25.4094 25.6609 25.6792C25.93 25.949 26.0816 26.3143 26.0824 26.6954V45.9994H34.1065C34.1826 45.9994 34.2555 46.0296 34.3093 46.0833C34.363 46.1371 34.3932 46.21 34.3932 46.286V53.0678H56.5345C57.1518 52.3151 57.7251 51.5273 58.2514 50.7084L58.393 50.4876H66.0645L65.735 51.1763C65.4055 51.8584 65.0397 52.5373 64.6509 53.2029C64.3213 53.7565 63.9918 54.2937 63.6425 54.8209L67.531 58.7094L67.8177 58.9961L67.5771 59.3256C65.2777 62.4848 62.498 65.2646 59.3388 67.5639L59.0093 67.8045L58.7193 67.5178L54.8209 63.6524C51.4157 65.9212 47.5994 67.5019 43.5872 68.3054V74.1974L43.1819 74.26C42.2174 74.4116 41.2497 74.5214 40.2787 74.5895C39.3077 74.6576 38.3333 74.695 37.3557 74.7016C36.3737 74.7016 35.3994 74.6642 34.4328 74.5895C33.4662 74.5149 32.4973 74.405 31.5263 74.26L31.121 74.1974V68.2922C27.1097 67.4929 23.2934 65.9167 19.8872 63.6524L16.0021 67.5408L15.7121 67.8275L15.3825 67.587C12.2212 65.2902 9.44108 62.51 7.14425 59.3487L6.90369 59.0192L7.19039 58.7325L11.0789 54.844C8.80781 51.4407 7.22589 47.6253 6.42258 43.6135H0.510774L0.444868 43.2082C0.293283 42.2394 0.177947 41.2706 0.115336 40.3018C0.0527252 39.3329 0 38.3575 0 37.3788C0 36.4001 0.0395439 35.4247 0.115336 34.4559C0.191129 33.487 0.303169 32.5149 0.444868 31.5494L0.510774 31.1441H6.41599C7.21741 27.1235 8.79934 23.2991 11.0723 19.8872L7.18379 16.0021L6.8971 15.7121L7.13766 15.3825C9.43702 12.2234 12.2168 9.44361 15.376 7.14425L15.7055 6.9037L15.9955 7.19039L19.8807 11.0789C23.2849 8.80741 27.1015 7.22547 31.1144 6.42257V0.51078L31.5197 0.44487C32.4842 0.293285 33.4519 0.183441 34.4229 0.115338C35.3939 0.0472349 36.3693 0.00878752 37.3491 0C38.3268 0 39.3011 0.0384474 40.2721 0.115338C41.2431 0.192229 42.2108 0.302073 43.1753 0.44487L43.5806 0.51078V6.41599C47.5931 7.22028 51.4094 8.80211 54.8143 11.0723L58.7028 7.1838L58.9895 6.8971L59.319 7.13766C62.4782 9.43702 65.258 12.2168 67.5573 15.376L67.7979 15.7055L67.5112 15.9955L63.6227 19.8807C63.8073 20.1575 63.9918 20.4442 64.173 20.7374C64.4301 21.1526 64.6706 21.558 64.8914 21.9534L65.2901 22.6652H57.3385L57.1935 22.4741C53.6213 17.7115 48.455 14.3929 42.6383 13.1244C36.8216 11.8558 30.7427 12.722 25.5118 15.5647C20.2809 18.4075 16.2471 23.037 14.1473 28.6077C12.0474 34.1785 12.0215 40.3188 14.0743 45.9071V37.4414C14.0752 37.1445 14.1935 36.8601 14.4034 36.6501C14.6134 36.4402 14.8978 36.3219 15.1947 36.321H18.5592C18.8567 36.3219 19.1417 36.4406 19.3517 36.6513C19.5617 36.8619 19.6796 37.1473 19.6796 37.4447V53.0678H20.4507V26.7053C20.4727 26.3119 20.6451 25.942 20.9321 25.6721C21.2192 25.4022 21.599 25.253 21.993 25.2553Z" fill="#1D1D1B"/>
<path fill-rule="evenodd" clip-rule="evenodd" d="M42.6313 6.8083V1.32818C41.8405 1.21284 41.0298 1.12057 40.206 1.05796C39.2701 0.985465 38.3178 0.945923 37.3555 0.945923C36.3933 0.945923 35.4377 0.985465 34.5018 1.05796C33.678 1.12057 32.8541 1.21284 32.0764 1.32818V7.20374L31.6843 7.27953C27.5323 8.05996 23.5878 9.69498 20.1012 12.0808L19.7717 12.3049L19.4916 12.0248L15.613 8.1495C12.7819 10.2689 10.2685 12.7823 8.14912 15.6134L12.0244 19.4953L12.3045 19.7754L12.0804 20.1049C9.69148 23.5901 8.05516 27.535 7.27586 31.688L7.20337 32.0768H1.31793C1.20589 32.871 1.11362 33.6783 1.05101 34.5022C0.975213 35.4413 0.938965 36.3904 0.938965 37.3559C0.938965 38.3214 0.975213 39.2705 1.05101 40.2064C1.11362 41.0302 1.20589 41.854 1.31793 42.6317H7.20337L7.27586 43.0238C8.05818 47.1779 9.69421 51.1244 12.0804 54.6135L12.3045 54.943L12.0244 55.2231L8.14912 59.0951C10.2661 61.9283 12.7798 64.442 15.613 66.559L19.4883 62.6837L19.7684 62.4036L20.0979 62.6277C21.8395 63.8166 23.6991 64.8226 25.6473 65.6297C27.5918 66.4364 29.6151 67.0383 31.6843 67.4257L32.0764 67.4982V73.377C32.8695 73.4935 33.678 73.5835 34.5018 73.6473C35.4377 73.7197 36.3889 73.756 37.3555 73.756C38.3178 73.756 39.2701 73.7197 40.206 73.6473C41.0298 73.5813 41.8536 73.4924 42.6313 73.377V67.5048L43.0235 67.4323C47.1787 66.6538 51.1259 65.0175 54.6131 62.6277L54.9426 62.4036L55.2228 62.6837L59.098 66.559C61.9324 64.4423 64.4473 61.9285 66.5652 59.0951L62.6899 55.2198L62.4098 54.9397L62.6339 54.6102C63.0513 53.9929 63.449 53.3635 63.8268 52.722C64.0674 52.3035 64.3047 51.8784 64.5287 51.4401H58.9267C55.9367 56.0192 51.5671 59.5281 46.4504 61.4588C41.3336 63.3895 35.7352 63.6419 30.4656 62.1793C25.1959 60.7168 20.5283 57.6153 17.1385 53.3237C13.7486 49.0322 11.8124 43.7732 11.6101 38.3081C11.4077 32.8429 12.9497 27.4552 16.0129 22.9247C19.0762 18.3942 23.5016 14.956 28.6487 13.1078C33.7958 11.2596 39.3975 11.0973 44.643 12.6443C49.8885 14.1914 54.5056 17.3675 57.8261 21.713H63.6785C63.583 21.5516 63.4874 21.3835 63.3918 21.2418C63.1579 20.8628 62.9074 20.4806 62.6438 20.095L62.4197 19.7655L62.6998 19.4854L66.5652 15.6134C64.4483 12.7802 61.9345 10.2665 59.1013 8.1495L55.226 12.0248L54.9459 12.3049L54.6164 12.0808C51.1272 9.69533 47.1807 8.06038 43.0268 7.27953L42.6346 7.20374L42.6313 6.8083Z" fill="#F4D01C"/>
<path d="M61.5599 35.4577C61.1283 35.4577 60.9009 35.3127 60.9009 35.0227V24.8533C60.9009 24.5633 61.1151 24.415 61.5599 24.415H63.0626C63.4943 24.415 63.7217 24.5633 63.7217 24.8533V29.1372H72.7607V24.8533C72.7607 24.5633 72.9749 24.415 73.3802 24.415H74.8862C75.3146 24.415 75.5453 24.5633 75.5453 24.8533V35.0227C75.5453 35.3127 75.3278 35.4577 74.8862 35.4577H73.3802C72.9749 35.4577 72.7607 35.3127 72.7607 35.0227V30.3697H63.7085V35.0326C63.7085 35.3225 63.4943 35.4675 63.0494 35.4675L61.5599 35.4577Z" fill="#EF7D00"/>
<path d="M77.2948 34.7624C76.9389 34.6174 76.8664 34.4065 77.1036 34.1627L77.3903 33.8331C77.4996 33.7202 77.6431 33.6464 77.7986 33.6231C77.9541 33.5999 78.1129 33.6285 78.2504 33.7046C79.5372 34.1682 80.8965 34.3981 82.2641 34.3835C85.0355 34.3835 86.548 33.6717 86.548 32.3272C86.548 31.0486 85.2101 30.3203 82.798 30.3203H80.7219C80.2902 30.3203 80.0628 30.1753 80.0628 29.8985V29.5262C80.0628 29.2362 80.277 29.0879 80.7219 29.0879H82.4882C84.9004 29.0879 86.113 28.4914 86.113 27.2755C86.113 26.1254 84.7751 25.4795 82.386 25.4795C81.1798 25.4557 79.9826 25.6929 78.8765 26.1748C78.7429 26.2567 78.5858 26.2918 78.4301 26.2745C78.2743 26.2572 78.1288 26.1885 78.0164 26.0793L77.6869 25.7695C77.4727 25.5257 77.5221 25.318 77.855 25.1533C79.4925 24.5251 81.2355 24.2174 82.9891 24.2471C86.7391 24.2471 88.9866 25.318 88.9866 27.114C88.9866 28.3926 87.9353 29.2197 85.8329 29.6085C88.2912 29.9809 89.5336 30.9036 89.5336 32.3766C89.5336 34.3999 86.9566 35.6126 82.7287 35.6126C80.8815 35.6507 79.0421 35.3629 77.2948 34.7624Z" fill="#EF7D00"/>
<path d="M91.2178 35.4577C90.7894 35.4577 90.5752 35.3127 90.5752 35.0227V24.8533C90.5752 24.5633 90.7894 24.415 91.2178 24.415H92.7237C93.1554 24.415 93.3828 24.5633 93.3828 24.8533V29.1372H102.435V24.8533C102.435 24.5633 102.649 24.415 103.055 24.415H104.561C104.989 24.415 105.22 24.5633 105.22 24.8533V35.0227C105.22 35.3127 105.002 35.4577 104.561 35.4577H103.055C102.649 35.4577 102.435 35.3127 102.435 35.0227V30.3697H93.3696V35.0326C93.3696 35.3225 93.1554 35.4675 92.7106 35.4675L91.2178 35.4577Z" fill="#EF7D00"/>
<path d="M107.427 35.4577C106.999 35.4577 106.785 35.3127 106.785 35.0227V24.8533C106.785 24.5633 106.999 24.415 107.427 24.415H120.757C121.185 24.415 121.399 24.5633 121.399 24.8533V35.0227C121.399 35.3127 121.185 35.4577 120.757 35.4577H119.257C118.852 35.4577 118.638 35.3127 118.638 35.0227V25.6475H109.586V35.0227C109.586 35.3127 109.368 35.4577 108.927 35.4577H107.427Z" fill="#EF7D00"/>
<path d="M65.4781 48.8631V41.5738L61.8038 48.8532H61.0723V39.9261H61.8467V47.2088L65.5209 39.9261H66.236V48.8499L65.4781 48.8631Z" fill="#1D1D1B"/>
<path d="M71.3368 48.8631V44.79H67.9064V48.8631H67.1353V39.9261H67.9064V43.9366H71.3368V39.9261H72.1079V48.8499L71.3368 48.8631Z" fill="#1D1D1B"/>
<path d="M72.3125 48.8631L75.6078 44.1771L72.5761 39.9261H73.5647L76.5305 44.1771V39.9261H77.3016V44.1771L80.2443 39.9261H81.2329L78.1979 44.1639L81.4933 48.8499H80.4783L77.2752 44.2101V48.8598H76.5041V44.2101L73.3275 48.8598L72.3125 48.8631Z" fill="#1D1D1B"/>
<path d="M86.0705 48.8631V41.5738L82.383 48.8631H81.6548V39.9261H82.4259V47.2088L86.1134 39.9261H86.8416V48.8499L86.0705 48.8631Z" fill="#1D1D1B"/>
<path d="M91.9394 48.8631V44.79H88.4991V48.8631H87.728V39.9261H88.4991V43.9366H91.9394V39.9261H92.7105V48.8499L91.9394 48.8631Z" fill="#1D1D1B"/>
<path d="M97.9928 48.8631V41.5738L94.3152 48.8532H93.5869V39.9261H94.358V47.2088L98.0323 39.9261H98.7639V48.8499L97.9928 48.8631Z" fill="#1D1D1B"/>
<path d="M104.571 42.5624C104.575 42.928 104.521 43.2918 104.409 43.64C104.312 43.9436 104.159 44.2263 103.958 44.4737C103.766 44.7026 103.525 44.8851 103.253 45.0075C102.964 45.1347 102.652 45.1988 102.336 45.1954H100.419V48.8664H99.6475V39.9262H102.336C102.652 39.9227 102.964 39.9868 103.253 40.114C103.524 40.2375 103.765 40.4198 103.958 40.6478C104.157 40.8937 104.31 41.174 104.409 41.475C104.523 41.826 104.577 42.1935 104.571 42.5624ZM103.803 42.5624C103.834 42.0888 103.691 41.6201 103.401 41.2443C103.26 41.0864 103.085 40.9624 102.889 40.8814C102.693 40.8004 102.482 40.7645 102.271 40.7763H100.422V44.3485H102.271C102.483 44.3605 102.695 44.324 102.89 44.2418C103.086 44.1596 103.261 44.0338 103.401 43.874C103.687 43.4988 103.83 43.0336 103.803 42.5624Z" fill="#1D1D1B"/>
<path d="M109.385 48.8631V41.5738L105.711 48.8532H104.979V39.9261H105.753V47.2088L109.424 39.9261H110.156V48.8499L109.385 48.8631Z" fill="#1D1D1B"/>
<path d="M115.244 48.8631V44.79H111.813V48.8631H111.052V39.9261H111.823V43.9366H115.254V39.9261H116.025V48.8499L115.244 48.8631Z" fill="#1D1D1B"/>
<path d="M117.705 40.7796V48.8631H116.934V39.9261H121.267V40.7664L117.705 40.7796Z" fill="#1D1D1B"/>
</svg>
