<svg width="13" height="13" viewBox="0 0 13 13" fill="none" xmlns="http://www.w3.org/2000/svg">
<path d="M2.68123 0.000634642C2.93921 0.0564287 3.18735 0.135047 3.39386 0.309404C3.42278 0.333813 3.45328 0.356954 3.48028 0.3839C4.0652 0.966884 4.65266 1.54765 5.23376 2.13475C5.66522 2.57096 5.7402 3.17043 5.43647 3.66909C5.30519 3.88938 5.10036 4.0565 4.8579 4.14112C4.49888 4.27014 4.22247 4.48983 4.06742 4.84552C3.96617 5.07589 3.94842 5.33423 4.01722 5.57623C4.19165 6.22959 4.55131 6.77739 4.98912 7.27985C5.51431 7.88217 6.11479 8.3932 6.83791 8.74667C7.13943 8.89408 7.45047 9.0231 7.79932 8.97459C8.26001 8.91119 8.61204 8.68675 8.79314 8.24769C8.91197 7.95953 9.05653 7.70116 9.33675 7.53758C9.79236 7.27129 10.3665 7.30585 10.7569 7.66058C11.1141 7.9852 11.4486 8.33423 11.7902 8.67502C12.1015 8.98633 12.4256 9.28812 12.7144 9.61845C13.0801 10.035 13.0909 10.6871 12.7681 11.1379C12.7016 11.2307 12.6279 11.3182 12.5476 11.3994C12.2051 11.7456 11.8512 12.0813 11.516 12.4345C11.1585 12.8114 10.7166 12.9759 10.2108 12.9972C9.67068 13.0203 9.14962 12.8998 8.64191 12.7283C7.64142 12.3907 6.73879 11.8661 5.88476 11.2564C4.47531 10.2504 3.21973 9.04539 2.15731 7.67929C1.37001 6.67056 0.695814 5.59398 0.279288 4.37476C0.0978716 3.84408 -0.0244494 3.30104 0.00414508 2.73391C0.0292447 2.23715 0.191915 1.80475 0.563009 1.45508C0.874053 1.16185 1.1762 0.858469 1.47168 0.549066C1.73157 0.276753 2.0118 0.0513559 2.401 0L2.68123 0.000634642Z" fill="black"/>
</svg>
