<svg width="50" height="50" viewBox="0 0 50 50" fill="none" xmlns="http://www.w3.org/2000/svg">
<g clip-path="url(#clip0_273_189)">
<path d="M25 33.3333C23.3518 33.3333 21.7407 32.8446 20.3702 31.9289C18.9998 31.0132 17.9317 29.7118 17.301 28.189C16.6703 26.6663 16.5052 24.9908 16.8268 23.3743C17.1483 21.7577 17.942 20.2729 19.1074 19.1074C20.2729 17.942 21.7577 17.1483 23.3742 16.8268C24.9908 16.5053 26.6663 16.6703 28.189 17.301C29.7117 17.9317 31.0132 18.9998 31.9289 20.3703C32.8446 21.7407 33.3333 23.3518 33.3333 25C33.3333 27.2101 32.4554 29.3298 30.8926 30.8926C29.3298 32.4554 27.2101 33.3333 25 33.3333ZM11.8396 33.3333H2.08333C1.5308 33.3333 1.00089 33.1138 0.610194 32.7231C0.219493 32.3324 0 31.8025 0 31.25C0.0197413 28.2586 1.10776 25.3726 3.06782 23.1127C5.02789 20.8527 7.73098 19.3676 10.6896 18.925C11.0334 18.8768 11.3838 18.9153 11.7089 19.037C12.034 19.1587 12.3236 19.3597 12.5513 19.6218C12.779 19.8838 12.9376 20.1986 13.0127 20.5375C13.0877 20.8765 13.0769 21.2288 12.9812 21.5625C12.662 22.6804 12.5 23.8374 12.5 25C12.5006 26.8537 12.9178 28.6835 13.7208 30.3542C13.8719 30.6713 13.9403 31.0214 13.9197 31.3721C13.8991 31.7227 13.7902 32.0624 13.6031 32.3597C13.416 32.657 13.1568 32.9021 12.8496 33.0723C12.5424 33.2426 12.1971 33.3323 11.8458 33.3333H11.8396ZM35.4167 50H14.5833C14.0308 50 13.5009 49.7805 13.1102 49.3898C12.7195 48.9991 12.5 48.4692 12.5 47.9167C12.5 44.6015 13.817 41.422 16.1612 39.0778C18.5054 36.7336 21.6848 35.4167 25 35.4167C28.3152 35.4167 31.4946 36.7336 33.8388 39.0778C36.183 41.422 37.5 44.6015 37.5 47.9167C37.5 48.4692 37.2805 48.9991 36.8898 49.3898C36.4991 49.7805 35.9692 50 35.4167 50ZM37.5 16.6667C35.8518 16.6667 34.2407 16.1779 32.8702 15.2623C31.4998 14.3466 30.4317 13.0451 29.801 11.5224C29.1703 9.99965 29.0052 8.32409 29.3268 6.70759C29.6483 5.09108 30.442 3.60622 31.6074 2.44078C32.7729 1.27534 34.2577 0.48167 35.8742 0.160126C37.4908 -0.161417 39.1663 0.00361068 40.689 0.634341C42.2117 1.26507 43.5132 2.33318 44.4289 3.70359C45.3446 5.074 45.8333 6.68516 45.8333 8.33334C45.8333 10.5435 44.9554 12.6631 43.3926 14.2259C41.8298 15.7887 39.7101 16.6667 37.5 16.6667ZM12.5 16.6667C10.8518 16.6667 9.24066 16.1779 7.87025 15.2623C6.49984 14.3466 5.43173 13.0451 4.801 11.5224C4.17027 9.99965 4.00525 8.32409 4.32679 6.70759C4.64833 5.09108 5.44201 3.60622 6.60744 2.44078C7.77288 1.27534 9.25774 0.48167 10.8742 0.160126C12.4908 -0.161417 14.1663 0.00361068 15.689 0.634341C17.2117 1.26507 18.5132 2.33318 19.4289 3.70359C20.3446 5.074 20.8333 6.68516 20.8333 8.33334C20.8333 10.5435 19.9554 12.6631 18.3926 14.2259C16.8298 15.7887 14.7101 16.6667 12.5 16.6667V16.6667ZM47.9167 33.3333H38.1604C37.8092 33.3323 37.4639 33.2426 37.1567 33.0723C36.8494 32.9021 36.5902 32.657 36.4031 32.3597C36.216 32.0624 36.1071 31.7227 36.0865 31.3721C36.066 31.0214 36.1344 30.6713 36.2854 30.3542C37.0863 28.683 37.5013 26.8532 37.5 25C37.4966 23.8369 37.3311 22.6799 37.0083 21.5625C36.9121 21.2279 36.9012 20.8744 36.9768 20.5345C37.0524 20.1946 37.212 19.879 37.4409 19.6167C37.6699 19.3543 37.961 19.1536 38.2876 19.0327C38.6142 18.9119 38.9658 18.8749 39.3104 18.925C42.269 19.3676 44.9721 20.8527 46.9322 23.1127C48.8922 25.3726 49.9803 28.2586 50 31.25C50 31.8025 49.7805 32.3324 49.3898 32.7231C48.9991 33.1138 48.4692 33.3333 47.9167 33.3333Z" fill="#FFEA2A"/>
</g>
<defs>
<clipPath id="clip0_273_189">
<rect width="50" height="50" fill="white"/>
</clipPath>
</defs>
</svg>
