<svg width="50" height="50" viewBox="0 0 50 50" fill="none" xmlns="http://www.w3.org/2000/svg">
<g clip-path="url(#clip0_273_187)">
<path d="M41.5498 5.50415L24.9998 0.0187378L8.44984 5.50415C7.20291 5.91752 6.11793 6.71328 5.34901 7.77839C4.58009 8.84351 4.16633 10.1238 4.1665 11.4375V25C4.1665 40.675 23.3332 49.3312 24.154 49.6917L24.8915 50.0187L25.6582 49.7646C26.4832 49.4896 45.8332 42.8687 45.8332 25V11.4375C45.8333 10.1238 45.4196 8.84351 44.6507 7.77839C43.8818 6.71328 42.7968 5.91752 41.5498 5.50415ZM25.9248 29.1437C25.5606 29.5104 25.1272 29.801 24.6498 29.9988C24.1723 30.1966 23.6604 30.2975 23.1436 30.2958H23.0748C22.5475 30.2877 22.0273 30.1728 21.5457 29.958C21.0641 29.7431 20.631 29.4328 20.2728 29.0458L15.4686 24.0458L18.4748 21.1667L23.1498 26.0417L33.9436 15.2479L36.8894 18.1937L25.9248 29.1437Z" fill="#FFEA2A"/>
</g>
<defs>
<clipPath id="clip0_273_187">
<rect width="50" height="50" fill="white"/>
</clipPath>
</defs>
</svg>
