<svg width="50" height="50" viewBox="0 0 50 50" fill="none" xmlns="http://www.w3.org/2000/svg">
<g clip-path="url(#clip0_273_181)">
<path d="M49.0853 44.6775L39.4079 34.9961C46.649 25.3194 44.6746 11.6049 34.998 4.36379C25.3214 -2.8773 11.6068 -0.902891 4.36574 8.77372C-2.87535 18.4503 -0.900938 32.1649 8.77567 39.406C16.5487 45.2226 27.2249 45.2226 34.998 39.406L44.6795 49.0875C45.8961 50.3041 47.8687 50.3041 49.0852 49.0875C50.3019 47.8708 50.3019 45.8983 49.0852 44.6817L49.0853 44.6775ZM21.9675 37.5374C13.3674 37.5374 6.39572 30.5657 6.39572 21.9656C6.39572 13.3655 13.3674 6.39376 21.9675 6.39376C30.5676 6.39376 37.5393 13.3655 37.5393 21.9656C37.5302 30.5618 30.5638 37.5282 21.9675 37.5374Z" fill="#FFEA2A"/>
</g>
<defs>
<clipPath id="clip0_273_181">
<rect width="50" height="50" fill="white"/>
</clipPath>
</defs>
</svg>
